<svg width="48" height="48" viewBox="0 0 48 48" fill="none" xmlns="http://www.w3.org/2000/svg">
<g id="arcticons:contacts">
<path id="Vector" d="M10.35 4.5C9.82828 4.51305 9.33232 4.72951 8.96799 5.10317C8.60367 5.47684 8.39983 5.97812 8.39999 6.5V41.6C8.39983 42.1219 8.60367 42.6232 8.96799 42.9968C9.33232 43.3705 9.82828 43.587 10.35 43.6H37.65C38.1804 43.6 38.6891 43.3893 39.0642 43.0142C39.4393 42.6391 39.65 42.1304 39.65 41.6V6.45C39.6369 5.92828 39.4205 5.43233 39.0468 5.068C38.6732 4.70367 38.1719 4.49984 37.65 4.5H10.35ZM24 13.27C25.0625 13.268 26.1017 13.5813 26.9861 14.1701C27.8705 14.759 28.5604 15.597 28.9684 16.5781C29.3763 17.5591 29.4841 18.6392 29.278 19.6815C29.072 20.7238 28.5613 21.6816 27.8107 22.4336C27.0601 23.1856 26.1033 23.6981 25.0613 23.9061C24.0194 24.1141 22.9391 24.0083 21.9573 23.6022C20.9755 23.196 20.1362 22.5078 19.5457 21.6244C18.9552 20.7411 18.64 19.7025 18.64 18.64C18.64 17.2175 19.2044 15.8532 20.2093 14.8464C21.2142 13.8396 22.5775 13.2726 24 13.27ZM24 26C30 26 34.73 27.67 34.73 29.66V34.78H13.27V29.61C13.27 27.62 18 26 24 26Z" stroke="#0A0A0A" stroke-opacity="0.89" stroke-linecap="round" stroke-linejoin="round"/>
</g>
</svg>
