<svg width="32" height="32" viewBox="0 0 32 32" fill="none" xmlns="http://www.w3.org/2000/svg">
<g id="Component 7" clip-path="url(#clip0_193_1644)">
<circle id="Ellipse 194" cx="16" cy="16" r="16" fill="#2F675F"/>
<path id="Vector (Stroke)" fill-rule="evenodd" clip-rule="evenodd" d="M15.9042 5.91669C16.1804 5.91669 16.4042 6.13869 16.4042 6.41255V8.0076H17.0542C17.9491 8.0076 18.7433 8.10532 19.4532 8.40319C20.1731 8.70522 20.7697 9.1974 21.2944 9.92599C21.4549 10.1488 21.4029 10.4585 21.1782 10.6177C20.9535 10.7769 20.6412 10.7253 20.4807 10.5024C20.0471 9.90044 19.5896 9.53724 19.0636 9.31655C18.5277 9.09169 17.8843 8.99933 17.0542 8.99933H16.4042V15.6109H17.2459C18.3952 15.6109 19.4974 16.0637 20.31 16.8696C21.1227 17.6756 21.5792 18.7686 21.5792 19.9084C21.5792 21.0482 21.1227 22.1413 20.31 22.9472C19.4974 23.7532 18.3952 24.2059 17.2459 24.2059H16.4042V25.4208C16.4042 25.6947 16.1804 25.9167 15.9042 25.9167C15.6281 25.9167 15.4042 25.6947 15.4042 25.4208V24.2059H14.9593C14.1537 24.2477 13.3497 24.0983 12.6139 23.7699C11.8739 23.4397 11.2246 22.9381 10.7207 22.3073C10.5492 22.0926 10.5856 21.7807 10.8021 21.6107C11.0185 21.4406 11.333 21.4767 11.5045 21.6914C11.909 22.1978 12.4302 22.6004 13.0243 22.8656C13.6184 23.1307 14.2679 23.2505 14.9184 23.215C14.9276 23.2145 14.9367 23.2142 14.9459 23.2142H15.4042V16.6026H14.7542C13.605 16.6026 12.5028 16.1499 11.6901 15.3439C10.8774 14.538 10.4209 13.4449 10.4209 12.3051C10.4209 11.1653 10.8774 10.0723 11.6901 9.26631C12.5028 8.46037 13.605 8.0076 14.7542 8.0076H15.4042V6.41255C15.4042 6.13869 15.6281 5.91669 15.9042 5.91669ZM15.4042 8.99933H14.7542C13.8702 8.99933 13.0223 9.34762 12.3972 9.96757C11.7721 10.5875 11.4209 11.4284 11.4209 12.3051C11.4209 13.1819 11.7721 14.0227 12.3972 14.6427C13.0223 15.2626 13.8702 15.6109 14.7542 15.6109H15.4042V8.99933ZM16.4042 16.6026V23.2142H17.2459C18.13 23.2142 18.9778 22.8659 19.6029 22.246C20.228 21.626 20.5792 20.7852 20.5792 19.9084C20.5792 19.0317 20.228 18.1908 19.6029 17.5709C18.9778 16.9509 18.13 16.6026 17.2459 16.6026H16.4042Z" fill="#FFFAF3"/>
</g>
<defs>
<clipPath id="clip0_193_1644">
<rect width="32" height="32" fill="white"/>
</clipPath>
</defs>
</svg>
