<svg width="26" height="28" viewBox="0 0 26 28" fill="none" xmlns="http://www.w3.org/2000/svg">
<g id="Mortarboard_alt_2_light">
<path id="Vector 469" d="M3.79175 8.91665V8.58331C3.79175 8.03103 4.23946 7.58331 4.79175 7.58331H21.2084C21.7607 7.58331 22.2084 8.03103 22.2084 8.58331V8.91665C22.2084 9.46893 21.7607 9.91665 21.2084 9.91665H4.79175C4.23946 9.91665 3.79175 9.46893 3.79175 8.91665Z" stroke="#F9F9F9"/>
<path id="Vector 472" d="M21.125 9.91669V19.25" stroke="#F9F9F9" stroke-linecap="round" stroke-linejoin="round"/>
<path id="Vector 470" d="M8.12508 9.91669L7.0603 17.9435C7.04987 18.0221 7.10238 18.0952 7.18017 18.1105L12.9713 19.2444C12.9903 19.2481 13.0099 19.2481 13.0289 19.2444L18.82 18.1105C18.8978 18.0952 18.9503 18.0221 18.9399 17.9435L17.8751 9.91669" stroke="#F9F9F9" stroke-linejoin="round"/>
<path id="Vector 471" d="M7.04175 15.75L12.9713 16.911C12.9903 16.9147 13.0099 16.9147 13.0289 16.911L18.9584 15.75" stroke="#F9F9F9" stroke-linejoin="round"/>
</g>
</svg>
