<svg width="24" height="24" viewBox="0 0 24 24" fill="none" xmlns="http://www.w3.org/2000/svg">
<g id="ph:pinterest-logo-light">
<path id="Vector" d="M20.0625 10.5C20.0625 12.5625 19.3407 14.4562 18.0282 15.8156C16.7157 17.175 15.1594 17.8125 13.5 17.8125C11.6813 17.8125 10.5469 17.1469 9.88129 16.5375L8.79379 21.1312C8.76444 21.2536 8.69492 21.3626 8.59635 21.4407C8.49778 21.5189 8.37585 21.5618 8.25004 21.5625L8.11879 21.5438C8.04696 21.5273 7.97915 21.4966 7.91934 21.4536C7.85953 21.4105 7.80892 21.3559 7.77049 21.2931C7.73207 21.2302 7.70659 21.1602 7.69557 21.0874C7.68454 21.0145 7.68819 20.9402 7.70629 20.8688L10.7063 8.11875C10.7166 8.04056 10.7433 7.96541 10.7845 7.89819C10.8258 7.83096 10.8807 7.77316 10.9457 7.72854C11.0107 7.68392 11.0844 7.65347 11.162 7.63918C11.2396 7.62488 11.3193 7.62706 11.3959 7.64557C11.4726 7.66407 11.5445 7.69849 11.607 7.7466C11.6695 7.7947 11.7212 7.85541 11.7587 7.92479C11.7963 7.99416 11.8188 8.07065 11.8248 8.14929C11.8308 8.22793 11.8203 8.30696 11.7938 8.38125L10.1907 15.1875C10.4625 15.6 11.3625 16.6875 13.5 16.6875C16.1719 16.6875 18.9375 14.3719 18.9375 10.5C18.9369 9.41667 18.6825 8.34855 18.1949 7.3812C17.7072 6.41384 16.9997 5.57414 16.1292 4.92935C15.2587 4.28456 14.2492 3.8526 13.1817 3.66808C12.1142 3.48356 11.0183 3.55159 9.98186 3.86674C8.94539 4.18189 7.99712 4.7354 7.21302 5.48291C6.42892 6.23043 5.83077 7.15119 5.4665 8.17144C5.10223 9.19169 4.98195 10.2831 5.1153 11.3582C5.24865 12.4332 5.63192 13.4622 6.23441 14.3625C6.27661 14.4231 6.30624 14.4916 6.32155 14.5638C6.33687 14.6361 6.33755 14.7107 6.32357 14.7832C6.30959 14.8557 6.28123 14.9247 6.24015 14.9861C6.19908 15.0475 6.14612 15.1 6.08441 15.1406C6.02379 15.1828 5.95534 15.2125 5.88308 15.2278C5.81082 15.2431 5.73623 15.2438 5.66371 15.2298C5.59118 15.2158 5.52219 15.1874 5.4608 15.1464C5.39942 15.1053 5.34688 15.0523 5.30629 14.9906C4.40946 13.6652 3.93251 12.1004 3.93754 10.5C3.93754 8.36169 4.78698 6.31096 6.29899 4.79895C7.811 3.28694 9.86173 2.4375 12 2.4375C14.1383 2.4375 16.1891 3.28694 17.7011 4.79895C19.2131 6.31096 20.0625 8.36169 20.0625 10.5Z" fill="#836142"/>
</g>
</svg>
